<svg width="368.90019531250005" height="287.70101562499997" xmlns="http://www.w3.org/2000/svg"><defs id="defs_1"></defs><path opacity="1" stroke-width="1" stroke-opacity="1" fill-opacity="1" d="M 0,0 l 368.90019531250005,0 l 0,287.70101562499997 l-368.90019531250005 0 z" fill="#fff" stroke="none"></path><g opacity="1" transform="matrix(1,0,0,1,15,15)"><path opacity="1" stroke-width="1" stroke-opacity="1" fill-opacity="1" d="M -15,-15 l 368.90019531250005,0 l 0,287.70101562499997 l-368.90019531250005 0 z" fill="#faf5f5" stroke="transparent" class="dot__frame-bg"></path><g opacity="1"><path opacity="1" stroke-width="1" stroke-opacity="1" fill-opacity="1" d="M 10,10 l 115,0 l 0,237 l-115 0 z" stroke="#3b4044" fill="#faf5f5"></path><text alignment-baseline="hanging" text-anchor="middle" opacity="1" stroke-width="1" stroke-opacity="1" fill-opacity="1" x="67.8" y="10" font-size="14" font-family="Source Code Pro, sans-serif" font-style="normal" font-weight="normal" font-variant="normal" fill="#3b4044" paint-order="stroke" style="stroke-linecap:butt; stroke-linejoin:miter;" stroke="none">クラスタ0</text><path opacity="1" stroke-width="1" stroke-opacity="1" fill-opacity="1" d="M 26,32 l 28,0 a 2,2,0,0,1,2,2 l 0,21 a 2,2,0,0,1,-2,2 l -28,0 a 2,2,0,0,1,-2,-2 l 0,-21 a 2,2,0,0,1,2,-2 z" stroke="#111" stroke-dasharray="null" fill="orange"></path><text alignment-baseline="central" text-anchor="middle" opacity="1" stroke-width="1" stroke-opacity="1" fill-opacity="1" x="41.39999999999999" y="44.898671875" font-size="14" font-family="Source Code Pro, sans-serif" font-style="normal" font-weight="normal" font-variant="normal" fill="#3b4044" paint-order="stroke" style="stroke-linecap:butt; stroke-linejoin:miter;" stroke="none">s1</text><path opacity="1" stroke-width="1" stroke-opacity="1" fill-opacity="1" d="M 79,32 l 28,0 a 2,2,0,0,1,2,2 l 0,21 a 2,2,0,0,1,-2,2 l -28,0 a 2,2,0,0,1,-2,-2 l 0,-21 a 2,2,0,0,1,2,-2 z" stroke="#111" stroke-dasharray="null" fill="orange"></path><text alignment-baseline="central" text-anchor="middle" opacity="1" stroke-width="1" stroke-opacity="1" fill-opacity="1" x="94.19999999999999" y="44.898671875" font-size="14" font-family="Source Code Pro, sans-serif" font-style="normal" font-weight="normal" font-variant="normal" fill="#3b4044" paint-order="stroke" style="stroke-linecap:butt; stroke-linejoin:miter;" stroke="none">s2</text></g><g opacity="1"><path opacity="1" stroke-width="1" stroke-opacity="1" fill-opacity="1" d="M 135,77 l 115,0 l 0,170 l-115 0 z" stroke="#3b4044" fill="#faf5f5"></path><text alignment-baseline="hanging" text-anchor="middle" opacity="1" stroke-width="1" stroke-opacity="1" fill-opacity="1" x="193.39999999999998" y="77.53367187499998" font-size="14" font-family="Source Code Pro, sans-serif" font-style="normal" font-weight="normal" font-variant="normal" fill="#3b4044" paint-order="stroke" style="stroke-linecap:butt; stroke-linejoin:miter;" stroke="none">クラスタ1</text><path opacity="1" stroke-width="1" stroke-opacity="1" fill-opacity="1" d="M 152,99 l 28,0 a 2,2,0,0,1,2,2 l 0,21 a 2,2,0,0,1,-2,2 l -28,0 a 2,2,0,0,1,-2,-2 l 0,-21 a 2,2,0,0,1,2,-2 z" stroke="#111" stroke-dasharray="null" fill="orange"></path><text alignment-baseline="central" text-anchor="middle" opacity="1" stroke-width="1" stroke-opacity="1" fill-opacity="1" x="167" y="112.43234375" font-size="14" font-family="Source Code Pro, sans-serif" font-style="normal" font-weight="normal" font-variant="normal" fill="#3b4044" paint-order="stroke" style="stroke-linecap:butt; stroke-linejoin:miter;" stroke="none">s3</text><path opacity="1" stroke-width="1" stroke-opacity="1" fill-opacity="1" d="M 205,99 l 28,0 a 2,2,0,0,1,2,2 l 0,21 a 2,2,0,0,1,-2,2 l -28,0 a 2,2,0,0,1,-2,-2 l 0,-21 a 2,2,0,0,1,2,-2 z" stroke="#111" stroke-dasharray="null" fill="orange"></path><text alignment-baseline="central" text-anchor="middle" opacity="1" stroke-width="1" stroke-opacity="1" fill-opacity="1" x="219.8" y="112.43234375" font-size="14" font-family="Source Code Pro, sans-serif" font-style="normal" font-weight="normal" font-variant="normal" fill="#3b4044" paint-order="stroke" style="stroke-linecap:butt; stroke-linejoin:miter;" stroke="none">s4</text><path opacity="1" stroke-width="1" stroke-opacity="1" fill-opacity="1" d="M 179,145 l 28,0 a 2,2,0,0,1,2,2 l 0,21 a 2,2,0,0,1,-2,2 l -28,0 a 2,2,0,0,1,-2,-2 l 0,-21 a 2,2,0,0,1,2,-2 z" stroke="#111" stroke-dasharray="null" fill="orange"></path><text alignment-baseline="central" text-anchor="middle" opacity="1" stroke-width="1" stroke-opacity="1" fill-opacity="1" x="193.4" y="157.61734375" font-size="14" font-family="Source Code Pro, sans-serif" font-style="normal" font-weight="normal" font-variant="normal" fill="#3b4044" paint-order="stroke" style="stroke-linecap:butt; stroke-linejoin:miter;" stroke="none">s5</text></g><g opacity="1"><path opacity="1" stroke-width="1" stroke-opacity="1" fill-opacity="1" d="M 261,190 l 77,0 l 0,57 l-77 0 z" stroke="#3b4044" fill="#faf5f5"></path><text alignment-baseline="hanging" text-anchor="middle" opacity="1" stroke-width="1" stroke-opacity="1" fill-opacity="1" x="300.05009765625005" y="190.16734375" font-size="14" font-family="Source Code Pro, sans-serif" font-style="normal" font-weight="normal" font-variant="normal" fill="#3b4044" paint-order="stroke" style="stroke-linecap:butt; stroke-linejoin:miter;" stroke="none">クラスタ2</text><path opacity="1" stroke-width="1" stroke-opacity="1" fill-opacity="1" d="M 278,212 l 28,0 a 2,2,0,0,1,2,2 l 0,21 a 2,2,0,0,1,-2,2 l -28,0 a 2,2,0,0,1,-2,-2 l 0,-21 a 2,2,0,0,1,2,-2 z" stroke="#111" stroke-dasharray="null" fill="orange"></path><text alignment-baseline="central" text-anchor="middle" opacity="1" stroke-width="1" stroke-opacity="1" fill-opacity="1" x="292.6" y="225.06601562499998" font-size="14" font-family="Source Code Pro, sans-serif" font-style="normal" font-weight="normal" font-variant="normal" fill="#3b4044" paint-order="stroke" style="stroke-linecap:butt; stroke-linejoin:miter;" stroke="none">s6</text></g><g opacity="1"><path opacity="1" stroke-width="1" stroke-opacity="1" fill-opacity="1" d="M 41.39999999999999 57.448671875L 41.39999999999999 67.533671875L 41.39999999999999 77.533671875L 150.6 107.87551079816879" stroke="#3b4044" stroke-dasharray="null" fill="none"></path><path opacity="1" stroke-width="1" stroke-opacity="1" fill-opacity="1" x="143.6717967697245" y="107.87551079816879" fill="#3b4044" d="M 143.6717967697245 103.87551079816879L 143.6717967697245 111.87551079816879L 150.6 107.87551079816879Z" stroke="none" transform="matrix(0.96349855403746,0.2677135341511965,-0.2677135341511965,0.96349855403746,34.37685200610184,-36.380046115089414)"></path></g><g opacity="1"><path opacity="1" stroke-width="1" stroke-opacity="1" fill-opacity="1" d="M 94.19999999999999 57.533671874999996L 94.19999999999999 67.533671875L 94.19999999999999 77.533671875L 203.4 107.87551079816879" stroke="#3b4044" stroke-dasharray="null" fill="none"></path><path opacity="1" stroke-width="1" stroke-opacity="1" fill-opacity="1" x="196.4717967697245" y="107.87551079816879" fill="#3b4044" d="M 196.4717967697245 103.87551079816879L 196.4717967697245 111.87551079816879L 203.4 107.87551079816879Z" stroke="none" transform="matrix(0.96349855403746,0.2677135341511964,-0.2677135341511964,0.96349855403746,36.304128352923954,-50.51532071827259)"></path></g><g opacity="1"><path opacity="1" stroke-width="1" stroke-opacity="1" fill-opacity="1" d="M 167 125.06734375L 167 135.06734375L 178.70731707317074 145.06734375" stroke="#3b4044" stroke-dasharray="null" fill="none"></path><path opacity="1" stroke-width="1" stroke-opacity="1" fill-opacity="1" x="171.77911384289524" y="145.06734375" fill="#3b4044" d="M 171.77911384289524 141.06734375L 171.77911384289524 149.06734375L 178.70731707317074 145.06734375Z" stroke="none" transform="matrix(0.7603736781933838,0.6494858501235147,-0.6494858501235147,0.7603736781933838,137.0421641508015,-81.30591975549228)"></path></g><g opacity="1"><path opacity="1" stroke-width="1" stroke-opacity="1" fill-opacity="1" d="M 219.8 124.98234375L 219.8 135.06734375L 208.09268292682927 145.06734375" stroke="#3b4044" stroke-dasharray="null" fill="none"></path><path opacity="1" stroke-width="1" stroke-opacity="1" fill-opacity="1" x="201.16447969655377" y="145.06734375" fill="#3b4044" d="M 201.16447969655377 141.06734375L 201.16447969655377 149.06734375L 208.09268292682927 145.06734375Z" stroke="none" transform="matrix(-0.7603736781933836,0.6494858501235148,-0.6494858501235148,-0.7603736781933836,460.5400687296609,120.21948042771675)"></path></g><g opacity="1"><path opacity="1" stroke-width="1" stroke-opacity="1" fill-opacity="1" d="M 193.4 170.16734375000001L 193.4 180.16734375L 193.4 190.16734375L 276.20000000000005 219.29647712953627" stroke="#3b4044" stroke-dasharray="null" fill="none"></path><path opacity="1" stroke-width="1" stroke-opacity="1" fill-opacity="1" x="269.2717967697245" y="219.29647712953627" fill="#3b4044" d="M 269.2717967697245 215.29647712953627L 269.2717967697245 223.29647712953627L 276.20000000000005 219.29647712953627Z" stroke="none" transform="matrix(0.9433273711085255,0.3318636330143424,-0.3318636330143424,0.9433273711085255,88.42950570727982,-79.23262757299145)"></path></g></g></svg>