<svg width="283.1005859375" height="287.531015625" xmlns="http://www.w3.org/2000/svg"><defs id="defs_1"></defs><path opacity="1" stroke-width="1" stroke-opacity="1" fill-opacity="1" d="M 0,0 l 283.1005859375,0 l 0,287.531015625 l-283.1005859375 0 z" fill="#fff" stroke="none"></path><g opacity="1" transform="matrix(1,0,0,1,15,15)"><path opacity="1" stroke-width="1" stroke-opacity="1" fill-opacity="1" d="M -15,-15 l 283.1005859375,0 l 0,287.531015625 l-283.1005859375 0 z" fill="#faf5f5" stroke="transparent" class="dot__frame-bg"></path><g opacity="1"><path opacity="1" stroke-width="1" stroke-opacity="1" fill-opacity="1" d="M 0,10 l 77,0 l 0,237 l-77 0 z" stroke="#3b4044" fill="#faf5f5"></path><text alignment-baseline="hanging" text-anchor="middle" opacity="1" stroke-width="1" stroke-opacity="1" fill-opacity="1" x="38.85009765625" y="10.000000000000014" font-size="14" font-family="Source Code Pro, sans-serif" font-style="normal" font-weight="normal" font-variant="normal" fill="#3b4044" paint-order="stroke" style="stroke-linecap:butt; stroke-linejoin:miter;" stroke="none">クラスタ0</text><path opacity="1" stroke-width="1" stroke-opacity="1" fill-opacity="1" d="M 17,32 l 28,0 a 2,2,0,0,1,2,2 l 0,21 a 2,2,0,0,1,-2,2 l -28,0 a 2,2,0,0,1,-2,-2 l 0,-21 a 2,2,0,0,1,2,-2 z" stroke="#111" stroke-dasharray="null" fill="none"></path><text alignment-baseline="central" text-anchor="middle" opacity="1" stroke-width="1" stroke-opacity="1" fill-opacity="1" x="31.400000000000006" y="44.813671875" font-size="14" font-family="Source Code Pro, sans-serif" font-style="normal" font-weight="normal" font-variant="normal" fill="#3b4044" paint-order="stroke" style="stroke-linecap:butt; stroke-linejoin:miter;" stroke="none">s1</text><path opacity="1" stroke-width="1" stroke-opacity="1" fill-opacity="1" d="M 17,212 l 28,0 a 2,2,0,0,1,2,2 l 0,21 a 2,2,0,0,1,-2,2 l -28,0 a 2,2,0,0,1,-2,-2 l 0,-21 a 2,2,0,0,1,2,-2 z" stroke="red" stroke-dasharray="null" fill="none"></path><text alignment-baseline="central" text-anchor="middle" opacity="1" stroke-width="1" stroke-opacity="1" fill-opacity="1" x="31.400000000000006" y="224.981015625" font-size="14" font-family="Source Code Pro, sans-serif" font-style="normal" font-weight="normal" font-variant="normal" fill="#3b4044" paint-order="stroke" style="stroke-linecap:butt; stroke-linejoin:miter;" stroke="none">c1</text></g><g opacity="1"><path opacity="1" stroke-width="1" stroke-opacity="1" fill-opacity="1" d="M 87,77 l 77,0 l 0,170 l-77 0 z" stroke="#3b4044" fill="#faf5f5"></path><text alignment-baseline="hanging" text-anchor="middle" opacity="1" stroke-width="1" stroke-opacity="1" fill-opacity="1" x="126.55029296875" y="77.363671875" font-size="14" font-family="Source Code Pro, sans-serif" font-style="normal" font-weight="normal" font-variant="normal" fill="#3b4044" paint-order="stroke" style="stroke-linecap:butt; stroke-linejoin:miter;" stroke="none">クラスタ1</text><path opacity="1" stroke-width="1" stroke-opacity="1" fill-opacity="1" d="M 104,99 l 28,0 a 2,2,0,0,1,2,2 l 0,21 a 2,2,0,0,1,-2,2 l -28,0 a 2,2,0,0,1,-2,-2 l 0,-21 a 2,2,0,0,1,2,-2 z" stroke="#111" stroke-dasharray="null" fill="none"></path><text alignment-baseline="central" text-anchor="middle" opacity="1" stroke-width="1" stroke-opacity="1" fill-opacity="1" x="119.10019531249998" y="112.26234375" font-size="14" font-family="Source Code Pro, sans-serif" font-style="normal" font-weight="normal" font-variant="normal" fill="#3b4044" paint-order="stroke" style="stroke-linecap:butt; stroke-linejoin:miter;" stroke="none">s3</text></g><g opacity="1"><path opacity="1" stroke-width="1" stroke-opacity="1" fill-opacity="1" d="M 175,144 l 77,0 l 0,102 l-77 0 z" stroke="#3b4044" fill="#faf5f5"></path><text alignment-baseline="hanging" text-anchor="middle" opacity="1" stroke-width="1" stroke-opacity="1" fill-opacity="1" x="214.25048828125" y="144.89734375" font-size="14" font-family="Source Code Pro, sans-serif" font-style="normal" font-weight="normal" font-variant="normal" fill="#3b4044" paint-order="stroke" style="stroke-linecap:butt; stroke-linejoin:miter;" stroke="none">クラスタ2</text><path opacity="1" stroke-width="1" stroke-opacity="1" fill-opacity="1" d="M 192,167 l 28,0 a 2,2,0,0,1,2,2 l 0,21 a 2,2,0,0,1,-2,2 l -28,0 a 2,2,0,0,1,-2,-2 l 0,-21 a 2,2,0,0,1,2,-2 z" stroke="#111" stroke-dasharray="null" fill="none"></path><text alignment-baseline="central" text-anchor="middle" opacity="1" stroke-width="1" stroke-opacity="1" fill-opacity="1" x="206.80039062499998" y="179.796015625" font-size="14" font-family="Source Code Pro, sans-serif" font-style="normal" font-weight="normal" font-variant="normal" fill="#3b4044" paint-order="stroke" style="stroke-linecap:butt; stroke-linejoin:miter;" stroke="none">c2</text></g><g opacity="1"><path opacity="1" stroke-width="1" stroke-opacity="1" fill-opacity="1" d="M 31.400000000000006 57.363671874999994L 31.400000000000006 67.363671875L 31.400000000000006 77.363671875L 102.70019531249997 105.7362668500501" stroke="#3b4044" stroke-dasharray="null" fill="none"></path><path opacity="1" stroke-width="1" stroke-opacity="1" fill-opacity="1" x="95.77199208222447" y="105.7362668500501" fill="#3b4044" d="M 95.77199208222447 101.7362668500501L 95.77199208222447 109.7362668500501L 102.70019531249997 105.7362668500501Z" stroke="none" transform="matrix(0.9291379384420257,0.3697332705447299,-0.3697332705447299,0.9291379384420257,46.371763319909675,-30.47898924803451)"></path></g><g opacity="1"><path opacity="1" stroke-width="1" stroke-opacity="1" fill-opacity="1" d="M 47.800000000000004 220.17817066468385L 108.40019531249999 202.431015625L 108.40019531249999 179.796015625L 108.40019531249999 144.89734375L 108.40019531249999 134.89734375L 113.12738771364864 124.89734375" stroke="#3b4044" stroke-dasharray="null" fill="none"></path><path opacity="1" stroke-width="1" stroke-opacity="1" fill-opacity="1" x="106.19918448337313" y="124.89734375" fill="#3b4044" d="M 106.19918448337313 120.89734375L 106.19918448337313 128.89734375L 113.12738771364864 124.89734375Z" stroke="none" transform="matrix(0.42737368124355474,-0.9040750724250352,0.9040750724250352,0.42737368124355474,-48.136855519476015,173.79515741449273)"></path></g><g opacity="1"><path opacity="1" stroke-width="1" stroke-opacity="1" fill-opacity="1" d="M 125.07300291135132 124.89734375L 129.8001953125 134.89734375L 129.8001953125 144.89734375L 190.40039062499997 172.36307059898797" stroke="#3b4044" stroke-dasharray="null" fill="none"></path><path opacity="1" stroke-width="1" stroke-opacity="1" fill-opacity="1" x="183.47218739472447" y="172.36307059898797" fill="#3b4044" d="M 183.47218739472447 168.36307059898797L 183.47218739472447 176.36307059898797L 190.40039062499997 172.36307059898797Z" stroke="none" transform="matrix(0.9108178528214617,0.4128084773617206,-0.4128084773617206,0.9108178528214617,88.1332523869289,-63.227186612679304)"></path></g><g opacity="1"><path opacity="1" stroke-width="1" stroke-opacity="1" fill-opacity="1" d="M 206.80039062499998 192.431015625L 206.80039062499998 202.431015625L 47.800000000000004 222.87258246426285" stroke="red" stroke-dasharray="null" fill="none"></path><path opacity="1" stroke-width="1" stroke-opacity="1" fill-opacity="1" x="40.8717967697245" y="222.87258246426285" fill="red" d="M 40.8717967697245 218.87258246426285L 40.8717967697245 226.87258246426285L 47.800000000000004 222.87258246426285Z" stroke="none" transform="matrix(-0.9918368329222864,0.12751351637645547,-0.12751351637645547,-0.9918368329222864,123.629067307605,437.83067271803384)"></path></g></g></svg>